<svg width="154" height="27" viewBox="0 0 154 27" fill="none" xmlns="http://www.w3.org/2000/svg">
<path d="M16.704 7.68H16.608L14.976 10.944L10.624 18.848L6.368 10.976L4.672 7.456H4.576V22.336H0V0H5.152L10.624 10.464H10.688L16.096 0H21.28V22.336H16.704V7.68Z" fill="url(#paint0_linear_94_370)"/>
<path d="M32.7788 22.72C31.5414 22.72 30.4321 22.5173 29.4508 22.112C28.4907 21.7067 27.6694 21.12 26.9867 20.352C26.3254 19.584 25.8134 18.656 25.4508 17.568C25.0881 16.48 24.9067 15.264 24.9067 13.92C24.9067 12.576 25.0881 11.36 25.4508 10.272C25.8134 9.184 26.3254 8.26667 26.9867 7.52C27.6694 6.752 28.4907 6.16533 29.4508 5.76C30.4321 5.35467 31.5414 5.152 32.7788 5.152C34.0161 5.152 35.1147 5.35467 36.0747 5.76C37.0561 6.16533 37.8774 6.752 38.5387 7.52C39.2214 8.26667 39.7441 9.184 40.1068 10.272C40.4694 11.36 40.6507 12.576 40.6507 13.92C40.6507 15.264 40.4694 16.48 40.1068 17.568C39.7441 18.656 39.2214 19.584 38.5387 20.352C37.8774 21.12 37.0561 21.7067 36.0747 22.112C35.1147 22.5173 34.0161 22.72 32.7788 22.72ZM32.7788 18.976C33.7174 18.976 34.4427 18.688 34.9548 18.112C35.4668 17.536 35.7228 16.7147 35.7228 15.648V12.224C35.7228 11.1573 35.4668 10.336 34.9548 9.76C34.4427 9.184 33.7174 8.896 32.7788 8.896C31.8401 8.896 31.1147 9.184 30.6028 9.76C30.0908 10.336 29.8348 11.1573 29.8348 12.224V15.648C29.8348 16.7147 30.0908 17.536 30.6028 18.112C31.1147 18.688 31.8401 18.976 32.7788 18.976Z" fill="url(#paint1_linear_94_370)"/>
<path d="M49.7257 22.336C48.0831 22.336 46.8351 21.92 45.9818 21.088C45.1497 20.256 44.7337 19.04 44.7337 17.44V9.216H42.3657V5.536H43.5498C44.1898 5.536 44.6271 5.38667 44.8618 5.088C45.0964 4.768 45.2137 4.32 45.2137 3.744V0.991999H49.4697V5.536H52.7977V9.216H49.4697V18.656H52.5418V22.336H49.7257Z" fill="url(#paint2_linear_94_370)"/>
<path d="M62.7788 22.72C61.5414 22.72 60.4321 22.5173 59.4507 22.112C58.4907 21.7067 57.6694 21.12 56.9868 20.352C56.3254 19.584 55.8134 18.656 55.4507 17.568C55.0881 16.48 54.9067 15.264 54.9067 13.92C54.9067 12.576 55.0881 11.36 55.4507 10.272C55.8134 9.184 56.3254 8.26667 56.9868 7.52C57.6694 6.752 58.4907 6.16533 59.4507 5.76C60.4321 5.35467 61.5414 5.152 62.7788 5.152C64.0161 5.152 65.1148 5.35467 66.0748 5.76C67.0561 6.16533 67.8774 6.752 68.5387 7.52C69.2214 8.26667 69.7441 9.184 70.1068 10.272C70.4694 11.36 70.6507 12.576 70.6507 13.92C70.6507 15.264 70.4694 16.48 70.1068 17.568C69.7441 18.656 69.2214 19.584 68.5387 20.352C67.8774 21.12 67.0561 21.7067 66.0748 22.112C65.1148 22.5173 64.0161 22.72 62.7788 22.72ZM62.7788 18.976C63.7174 18.976 64.4427 18.688 64.9548 18.112C65.4668 17.536 65.7227 16.7147 65.7227 15.648V12.224C65.7227 11.1573 65.4668 10.336 64.9548 9.76C64.4427 9.184 63.7174 8.896 62.7788 8.896C61.8401 8.896 61.1147 9.184 60.6027 9.76C60.0907 10.336 59.8348 11.1573 59.8348 12.224V15.648C59.8348 16.7147 60.0907 17.536 60.6027 18.112C61.1147 18.688 61.8401 18.976 62.7788 18.976Z" fill="url(#paint3_linear_94_370)"/>
<path d="M74.0253 22.336V5.536H78.7613V9.184H78.9212C79.0066 8.71467 79.1559 8.26667 79.3692 7.84C79.5826 7.392 79.8599 6.99733 80.2012 6.656C80.5639 6.31467 80.9906 6.048 81.4812 5.856C81.9719 5.64267 82.5479 5.536 83.2093 5.536H84.0413V9.952H82.8573C81.4706 9.952 80.4359 10.1333 79.7533 10.496C79.0919 10.8587 78.7613 11.5307 78.7613 12.512V22.336H74.0253Z" fill="url(#paint4_linear_94_370)"/>
<path d="M92.6588 22.72C91.0374 22.72 89.6721 22.464 88.5628 21.952C87.4534 21.4187 86.4614 20.672 85.5867 19.712L88.3708 16.896C88.9681 17.5573 89.6294 18.08 90.3548 18.464C91.0801 18.848 91.9014 19.04 92.8187 19.04C93.7574 19.04 94.4081 18.9013 94.7708 18.624C95.1334 18.3253 95.3148 17.9307 95.3148 17.44C95.3148 16.6507 94.7494 16.1813 93.6188 16.032L91.7948 15.808C88.0188 15.3387 86.1308 13.6107 86.1308 10.624C86.1308 9.81333 86.2801 9.07733 86.5788 8.416C86.8988 7.73333 87.3361 7.15733 87.8907 6.688C88.4667 6.19733 89.1494 5.824 89.9388 5.568C90.7494 5.29067 91.6561 5.152 92.6588 5.152C93.5334 5.152 94.3014 5.216 94.9628 5.344C95.6454 5.45067 96.2428 5.62133 96.7548 5.856C97.2881 6.06933 97.7681 6.34667 98.1947 6.688C98.6427 7.008 99.0801 7.37067 99.5068 7.776L96.7868 10.56C96.2534 10.0267 95.6454 9.61067 94.9628 9.312C94.3014 8.992 93.6188 8.832 92.9147 8.832C92.1041 8.832 91.5281 8.96 91.1868 9.216C90.8454 9.472 90.6748 9.81333 90.6748 10.24C90.6748 10.688 90.7921 11.04 91.0267 11.296C91.2827 11.5307 91.7521 11.7013 92.4348 11.808L94.3228 12.064C98.0134 12.5547 99.8587 14.24 99.8587 17.12C99.8587 17.9307 99.6881 18.6773 99.3467 19.36C99.0054 20.0427 98.5147 20.64 97.8747 21.152C97.2561 21.6427 96.4987 22.0267 95.6028 22.304C94.7281 22.5813 93.7467 22.72 92.6588 22.72Z" fill="url(#paint5_linear_94_370)"/>
<path d="M113.382 22.576C112.369 22.576 111.516 22.416 110.822 22.096C110.129 21.7627 109.509 21.296 108.962 20.696L110.702 18.936C111.076 19.3493 111.489 19.676 111.942 19.916C112.396 20.156 112.909 20.276 113.482 20.276C114.069 20.276 114.476 20.1893 114.702 20.016C114.929 19.8293 115.042 19.5827 115.042 19.276C115.042 18.7827 114.689 18.4893 113.982 18.396L112.842 18.256C110.482 17.9627 109.302 16.8827 109.302 15.016C109.302 14.5093 109.396 14.0493 109.582 13.636C109.782 13.2093 110.056 12.8493 110.402 12.556C110.762 12.2493 111.189 12.016 111.682 11.856C112.189 11.6827 112.756 11.596 113.382 11.596C113.929 11.596 114.409 11.636 114.822 11.716C115.249 11.7827 115.622 11.8893 115.942 12.036C116.276 12.1693 116.576 12.3427 116.842 12.556C117.122 12.756 117.396 12.9827 117.662 13.236L115.962 14.976C115.629 14.6427 115.249 14.3827 114.822 14.196C114.409 13.996 113.982 13.896 113.542 13.896C113.036 13.896 112.676 13.976 112.462 14.136C112.249 14.296 112.142 14.5093 112.142 14.776C112.142 15.056 112.216 15.276 112.362 15.436C112.522 15.5827 112.816 15.6893 113.242 15.756L114.422 15.916C116.729 16.2227 117.882 17.276 117.882 19.076C117.882 19.5827 117.776 20.0493 117.562 20.476C117.349 20.9027 117.042 21.276 116.642 21.596C116.256 21.9027 115.782 22.1427 115.222 22.316C114.676 22.4893 114.062 22.576 113.382 22.576Z" fill="url(#paint6_linear_94_370)"/>
<path d="M119.9 7.536H122.86V13.616H122.98C123.167 13.0693 123.494 12.596 123.96 12.196C124.427 11.796 125.074 11.596 125.9 11.596C126.98 11.596 127.794 11.956 128.34 12.676C128.9 13.396 129.18 14.4227 129.18 15.756V22.336H126.22V15.996C126.22 15.316 126.114 14.816 125.9 14.496C125.687 14.1627 125.307 13.996 124.76 13.996C124.52 13.996 124.287 14.0293 124.06 14.096C123.834 14.1493 123.627 14.2427 123.44 14.376C123.267 14.5093 123.127 14.676 123.02 14.876C122.914 15.0627 122.86 15.2827 122.86 15.536V22.336H119.9V7.536Z" fill="url(#paint7_linear_94_370)"/>
<path d="M136.074 22.576C135.301 22.576 134.608 22.4493 133.994 22.196C133.394 21.9427 132.881 21.576 132.454 21.096C132.041 20.616 131.721 20.036 131.494 19.356C131.268 18.676 131.154 17.916 131.154 17.076C131.154 16.236 131.268 15.476 131.494 14.796C131.721 14.116 132.041 13.5427 132.454 13.076C132.881 12.596 133.394 12.2293 133.994 11.976C134.608 11.7227 135.301 11.596 136.074 11.596C136.848 11.596 137.534 11.7227 138.134 11.976C138.748 12.2293 139.261 12.596 139.674 13.076C140.101 13.5427 140.428 14.116 140.654 14.796C140.881 15.476 140.994 16.236 140.994 17.076C140.994 17.916 140.881 18.676 140.654 19.356C140.428 20.036 140.101 20.616 139.674 21.096C139.261 21.576 138.748 21.9427 138.134 22.196C137.534 22.4493 136.848 22.576 136.074 22.576ZM136.074 20.236C136.661 20.236 137.114 20.056 137.434 19.696C137.754 19.336 137.914 18.8227 137.914 18.156V16.016C137.914 15.3493 137.754 14.836 137.434 14.476C137.114 14.116 136.661 13.936 136.074 13.936C135.488 13.936 135.034 14.116 134.714 14.476C134.394 14.836 134.234 15.3493 134.234 16.016V18.156C134.234 18.8227 134.394 19.336 134.714 19.696C135.034 20.056 135.488 20.236 136.074 20.236Z" fill="url(#paint8_linear_94_370)"/>
<path d="M143.104 11.836H146.064V13.596H146.163C146.31 13.0093 146.643 12.5293 147.163 12.156C147.697 11.7827 148.304 11.596 148.984 11.596C150.317 11.596 151.324 12.0627 152.003 12.996C152.683 13.9293 153.023 15.2893 153.023 17.076C153.023 18.8627 152.683 20.2293 152.003 21.176C151.324 22.1093 150.317 22.576 148.984 22.576C148.637 22.576 148.31 22.5227 148.003 22.416C147.697 22.3227 147.417 22.1893 147.163 22.016C146.923 21.8293 146.717 21.616 146.544 21.376C146.37 21.1227 146.243 20.856 146.163 20.576H146.064V26.336H143.104V11.836ZM148.003 20.176C148.563 20.176 149.023 19.9827 149.383 19.596C149.757 19.196 149.943 18.6627 149.943 17.996V16.176C149.943 15.5093 149.757 14.9827 149.383 14.596C149.023 14.196 148.563 13.996 148.003 13.996C147.443 13.996 146.977 14.136 146.604 14.416C146.243 14.6827 146.064 15.056 146.064 15.536V18.636C146.064 19.116 146.243 19.496 146.604 19.776C146.977 20.0427 147.443 20.176 148.003 20.176Z" fill="url(#paint9_linear_94_370)"/>
<defs>
<linearGradient id="paint0_linear_94_370" x1="-2.46399" y1="31.336" x2="154.536" y2="31.336" gradientUnits="userSpaceOnUse">
<stop stop-color="#0B0D0D"/>
<stop offset="1" stop-color="#4529E6"/>
</linearGradient>
<linearGradient id="paint1_linear_94_370" x1="-2.46399" y1="31.336" x2="154.536" y2="31.336" gradientUnits="userSpaceOnUse">
<stop stop-color="#0B0D0D"/>
<stop offset="1" stop-color="#4529E6"/>
</linearGradient>
<linearGradient id="paint2_linear_94_370" x1="-2.46399" y1="31.336" x2="154.536" y2="31.336" gradientUnits="userSpaceOnUse">
<stop stop-color="#0B0D0D"/>
<stop offset="1" stop-color="#4529E6"/>
</linearGradient>
<linearGradient id="paint3_linear_94_370" x1="-2.46399" y1="31.336" x2="154.536" y2="31.336" gradientUnits="userSpaceOnUse">
<stop stop-color="#0B0D0D"/>
<stop offset="1" stop-color="#4529E6"/>
</linearGradient>
<linearGradient id="paint4_linear_94_370" x1="-2.46399" y1="31.336" x2="154.536" y2="31.336" gradientUnits="userSpaceOnUse">
<stop stop-color="#0B0D0D"/>
<stop offset="1" stop-color="#4529E6"/>
</linearGradient>
<linearGradient id="paint5_linear_94_370" x1="-2.46399" y1="31.336" x2="154.536" y2="31.336" gradientUnits="userSpaceOnUse">
<stop stop-color="#0B0D0D"/>
<stop offset="1" stop-color="#4529E6"/>
</linearGradient>
<linearGradient id="paint6_linear_94_370" x1="-2.46399" y1="31.336" x2="154.536" y2="31.336" gradientUnits="userSpaceOnUse">
<stop stop-color="#0B0D0D"/>
<stop offset="1" stop-color="#4529E6"/>
</linearGradient>
<linearGradient id="paint7_linear_94_370" x1="-2.46399" y1="31.336" x2="154.536" y2="31.336" gradientUnits="userSpaceOnUse">
<stop stop-color="#0B0D0D"/>
<stop offset="1" stop-color="#4529E6"/>
</linearGradient>
<linearGradient id="paint8_linear_94_370" x1="-2.46399" y1="31.336" x2="154.536" y2="31.336" gradientUnits="userSpaceOnUse">
<stop stop-color="#0B0D0D"/>
<stop offset="1" stop-color="#4529E6"/>
</linearGradient>
<linearGradient id="paint9_linear_94_370" x1="-2.46399" y1="31.336" x2="154.536" y2="31.336" gradientUnits="userSpaceOnUse">
<stop stop-color="#0B0D0D"/>
<stop offset="1" stop-color="#4529E6"/>
</linearGradient>
</defs>
</svg>
