<svg width="154" height="27" viewBox="0 0 154 27" fill="none" xmlns="http://www.w3.org/2000/svg">
<path d="M16.704 8.016H16.608L14.976 11.28L10.624 19.184L6.368 11.312L4.672 7.792H4.576V22.672H0V0.335999H5.152L10.624 10.8H10.688L16.096 0.335999H21.28V22.672H16.704V8.016Z" fill="white"/>
<path d="M32.7788 23.056C31.5414 23.056 30.4321 22.8533 29.4508 22.448C28.4907 22.0427 27.6694 21.456 26.9867 20.688C26.3254 19.92 25.8134 18.992 25.4508 17.904C25.0881 16.816 24.9067 15.6 24.9067 14.256C24.9067 12.912 25.0881 11.696 25.4508 10.608C25.8134 9.52 26.3254 8.60266 26.9867 7.856C27.6694 7.088 28.4907 6.50133 29.4508 6.096C30.4321 5.69067 31.5414 5.488 32.7788 5.488C34.0161 5.488 35.1147 5.69067 36.0747 6.096C37.0561 6.50133 37.8774 7.088 38.5387 7.856C39.2214 8.60266 39.7441 9.52 40.1068 10.608C40.4694 11.696 40.6507 12.912 40.6507 14.256C40.6507 15.6 40.4694 16.816 40.1068 17.904C39.7441 18.992 39.2214 19.92 38.5387 20.688C37.8774 21.456 37.0561 22.0427 36.0747 22.448C35.1147 22.8533 34.0161 23.056 32.7788 23.056ZM32.7788 19.312C33.7174 19.312 34.4427 19.024 34.9548 18.448C35.4668 17.872 35.7228 17.0507 35.7228 15.984V12.56C35.7228 11.4933 35.4668 10.672 34.9548 10.096C34.4427 9.52 33.7174 9.232 32.7788 9.232C31.8401 9.232 31.1147 9.52 30.6028 10.096C30.0908 10.672 29.8348 11.4933 29.8348 12.56V15.984C29.8348 17.0507 30.0908 17.872 30.6028 18.448C31.1147 19.024 31.8401 19.312 32.7788 19.312Z" fill="white"/>
<path d="M49.7257 22.672C48.0831 22.672 46.8351 22.256 45.9818 21.424C45.1497 20.592 44.7337 19.376 44.7337 17.776V9.552H42.3657V5.872H43.5498C44.1898 5.872 44.6271 5.72266 44.8618 5.424C45.0964 5.104 45.2137 4.656 45.2137 4.08V1.328H49.4697V5.872H52.7977V9.552H49.4697V18.992H52.5418V22.672H49.7257Z" fill="white"/>
<path d="M62.7788 23.056C61.5414 23.056 60.4321 22.8533 59.4507 22.448C58.4907 22.0427 57.6694 21.456 56.9868 20.688C56.3254 19.92 55.8134 18.992 55.4507 17.904C55.0881 16.816 54.9067 15.6 54.9067 14.256C54.9067 12.912 55.0881 11.696 55.4507 10.608C55.8134 9.52 56.3254 8.60266 56.9868 7.856C57.6694 7.088 58.4907 6.50133 59.4507 6.096C60.4321 5.69067 61.5414 5.488 62.7788 5.488C64.0161 5.488 65.1148 5.69067 66.0748 6.096C67.0561 6.50133 67.8774 7.088 68.5387 7.856C69.2214 8.60266 69.7441 9.52 70.1068 10.608C70.4694 11.696 70.6507 12.912 70.6507 14.256C70.6507 15.6 70.4694 16.816 70.1068 17.904C69.7441 18.992 69.2214 19.92 68.5387 20.688C67.8774 21.456 67.0561 22.0427 66.0748 22.448C65.1148 22.8533 64.0161 23.056 62.7788 23.056ZM62.7788 19.312C63.7174 19.312 64.4427 19.024 64.9548 18.448C65.4668 17.872 65.7227 17.0507 65.7227 15.984V12.56C65.7227 11.4933 65.4668 10.672 64.9548 10.096C64.4427 9.52 63.7174 9.232 62.7788 9.232C61.8401 9.232 61.1147 9.52 60.6027 10.096C60.0907 10.672 59.8348 11.4933 59.8348 12.56V15.984C59.8348 17.0507 60.0907 17.872 60.6027 18.448C61.1147 19.024 61.8401 19.312 62.7788 19.312Z" fill="white"/>
<path d="M74.0253 22.672V5.872H78.7613V9.52H78.9212C79.0066 9.05066 79.1559 8.60266 79.3692 8.176C79.5826 7.728 79.8599 7.33333 80.2012 6.992C80.5639 6.65066 80.9906 6.384 81.4812 6.192C81.9719 5.97866 82.5479 5.872 83.2093 5.872H84.0413V10.288H82.8573C81.4706 10.288 80.4359 10.4693 79.7533 10.832C79.0919 11.1947 78.7613 11.8667 78.7613 12.848V22.672H74.0253Z" fill="white"/>
<path d="M92.6588 23.056C91.0374 23.056 89.6721 22.8 88.5628 22.288C87.4534 21.7547 86.4614 21.008 85.5867 20.048L88.3708 17.232C88.9681 17.8933 89.6294 18.416 90.3548 18.8C91.0801 19.184 91.9014 19.376 92.8187 19.376C93.7574 19.376 94.4081 19.2373 94.7708 18.96C95.1334 18.6613 95.3148 18.2667 95.3148 17.776C95.3148 16.9867 94.7494 16.5173 93.6188 16.368L91.7948 16.144C88.0188 15.6747 86.1308 13.9467 86.1308 10.96C86.1308 10.1493 86.2801 9.41333 86.5788 8.752C86.8988 8.06933 87.3361 7.49333 87.8907 7.024C88.4667 6.53333 89.1494 6.16 89.9388 5.904C90.7494 5.62667 91.6561 5.488 92.6588 5.488C93.5334 5.488 94.3014 5.552 94.9628 5.68C95.6454 5.78666 96.2428 5.95733 96.7548 6.192C97.2881 6.40533 97.7681 6.68267 98.1947 7.024C98.6427 7.344 99.0801 7.70666 99.5068 8.112L96.7868 10.896C96.2534 10.3627 95.6454 9.94667 94.9628 9.648C94.3014 9.328 93.6188 9.168 92.9147 9.168C92.1041 9.168 91.5281 9.296 91.1868 9.552C90.8454 9.808 90.6748 10.1493 90.6748 10.576C90.6748 11.024 90.7921 11.376 91.0267 11.632C91.2827 11.8667 91.7521 12.0373 92.4348 12.144L94.3228 12.4C98.0134 12.8907 99.8587 14.576 99.8587 17.456C99.8587 18.2667 99.6881 19.0133 99.3467 19.696C99.0054 20.3787 98.5147 20.976 97.8747 21.488C97.2561 21.9787 96.4987 22.3627 95.6028 22.64C94.7281 22.9173 93.7467 23.056 92.6588 23.056Z" fill="white"/>
<path d="M113.382 22.912C112.369 22.912 111.516 22.752 110.822 22.432C110.129 22.0987 109.509 21.632 108.962 21.032L110.702 19.272C111.076 19.6853 111.489 20.012 111.942 20.252C112.396 20.492 112.909 20.612 113.482 20.612C114.069 20.612 114.476 20.5253 114.702 20.352C114.929 20.1653 115.042 19.9187 115.042 19.612C115.042 19.1187 114.689 18.8253 113.982 18.732L112.842 18.592C110.482 18.2987 109.302 17.2187 109.302 15.352C109.302 14.8453 109.396 14.3853 109.582 13.972C109.782 13.5453 110.056 13.1853 110.402 12.892C110.762 12.5853 111.189 12.352 111.682 12.192C112.189 12.0187 112.756 11.932 113.382 11.932C113.929 11.932 114.409 11.972 114.822 12.052C115.249 12.1187 115.622 12.2253 115.942 12.372C116.276 12.5053 116.576 12.6787 116.842 12.892C117.122 13.092 117.396 13.3187 117.662 13.572L115.962 15.312C115.629 14.9787 115.249 14.7187 114.822 14.532C114.409 14.332 113.982 14.232 113.542 14.232C113.036 14.232 112.676 14.312 112.462 14.472C112.249 14.632 112.142 14.8453 112.142 15.112C112.142 15.392 112.216 15.612 112.362 15.772C112.522 15.9187 112.816 16.0253 113.242 16.092L114.422 16.252C116.729 16.5587 117.882 17.612 117.882 19.412C117.882 19.9187 117.776 20.3853 117.562 20.812C117.349 21.2387 117.042 21.612 116.642 21.932C116.256 22.2387 115.782 22.4787 115.222 22.652C114.676 22.8253 114.062 22.912 113.382 22.912Z" fill="white"/>
<path d="M119.9 7.872H122.86V13.952H122.98C123.167 13.4053 123.494 12.932 123.96 12.532C124.427 12.132 125.074 11.932 125.9 11.932C126.98 11.932 127.794 12.292 128.34 13.012C128.9 13.732 129.18 14.7587 129.18 16.092V22.672H126.22V16.332C126.22 15.652 126.114 15.152 125.9 14.832C125.687 14.4987 125.307 14.332 124.76 14.332C124.52 14.332 124.287 14.3653 124.06 14.432C123.834 14.4853 123.627 14.5787 123.44 14.712C123.267 14.8453 123.127 15.012 123.02 15.212C122.914 15.3987 122.86 15.6187 122.86 15.872V22.672H119.9V7.872Z" fill="white"/>
<path d="M136.074 22.912C135.301 22.912 134.608 22.7853 133.994 22.532C133.394 22.2787 132.881 21.912 132.454 21.432C132.041 20.952 131.721 20.372 131.494 19.692C131.268 19.012 131.154 18.252 131.154 17.412C131.154 16.572 131.268 15.812 131.494 15.132C131.721 14.452 132.041 13.8787 132.454 13.412C132.881 12.932 133.394 12.5653 133.994 12.312C134.608 12.0587 135.301 11.932 136.074 11.932C136.848 11.932 137.534 12.0587 138.134 12.312C138.748 12.5653 139.261 12.932 139.674 13.412C140.101 13.8787 140.428 14.452 140.654 15.132C140.881 15.812 140.994 16.572 140.994 17.412C140.994 18.252 140.881 19.012 140.654 19.692C140.428 20.372 140.101 20.952 139.674 21.432C139.261 21.912 138.748 22.2787 138.134 22.532C137.534 22.7853 136.848 22.912 136.074 22.912ZM136.074 20.572C136.661 20.572 137.114 20.392 137.434 20.032C137.754 19.672 137.914 19.1587 137.914 18.492V16.352C137.914 15.6853 137.754 15.172 137.434 14.812C137.114 14.452 136.661 14.272 136.074 14.272C135.488 14.272 135.034 14.452 134.714 14.812C134.394 15.172 134.234 15.6853 134.234 16.352V18.492C134.234 19.1587 134.394 19.672 134.714 20.032C135.034 20.392 135.488 20.572 136.074 20.572Z" fill="white"/>
<path d="M143.104 12.172H146.064V13.932H146.163C146.31 13.3453 146.643 12.8653 147.163 12.492C147.697 12.1187 148.304 11.932 148.984 11.932C150.317 11.932 151.324 12.3987 152.003 13.332C152.683 14.2653 153.023 15.6253 153.023 17.412C153.023 19.1987 152.683 20.5653 152.003 21.512C151.324 22.4453 150.317 22.912 148.984 22.912C148.637 22.912 148.31 22.8587 148.003 22.752C147.697 22.6587 147.417 22.5253 147.163 22.352C146.923 22.1653 146.717 21.952 146.544 21.712C146.37 21.4587 146.243 21.192 146.163 20.912H146.064V26.672H143.104V12.172ZM148.003 20.512C148.563 20.512 149.023 20.3187 149.383 19.932C149.757 19.532 149.943 18.9987 149.943 18.332V16.512C149.943 15.8453 149.757 15.3187 149.383 14.932C149.023 14.532 148.563 14.332 148.003 14.332C147.443 14.332 146.977 14.472 146.604 14.752C146.243 15.0187 146.064 15.392 146.064 15.872V18.972C146.064 19.452 146.243 19.832 146.604 20.112C146.977 20.3787 147.443 20.512 148.003 20.512Z" fill="white"/>
</svg>
